<svg version="1" xmlns="http://www.w3.org/2000/svg" width="521.333" height="521.333" viewBox="0 0 391.000000 391.000000"><path d="M283.3 15c-.3 1.1-.9 2-1.4 2-1.4 0-40.4 39.4-40.1 40.5.2.5.1.7-.3.3-.9-.9-6.6 4.2-5.9 5.4.3.5.1.7-.3.6-1.4-.4-14.4 12.8-13.5 13.7.4.5.2.6-.3.2-1.2-.6-61.1 59-60.7 60.5.1.5-.1.7-.6.4-1.1-.7-134.4 132.9-133.5 133.9.5.4.3.5-.3.2-1.4-.8-16.6 14.7-15.6 15.8.4.5.2.5-.4.2-.6-.3-3 1.3-5.3 3.7-2.4 2.4-3.9 4.6-3.4 4.8.4.2 20.6.3 44.8.3 24.2-.1 44.3 0 44.7.2.4.2-1.7 2.8-4.7 5.8-3 2.9-5.5 5.9-5.5 6.6 0 .7-.3 1-.6.6-.7-.7-22.4 20.9-22.4 22.4 0 .5-.4.8-.8.5-.5-.3-1.6.4-2.5 1.5-.9 1-1.3 2-.9 2.1.4 0 20.5.2 44.7.4 24.2.1 44.6.3 45.3.3.7.1-7.7 9.1-18.7 20.1-11.1 10.9-20.1 20-20.1 20.2 0 .2 3.6.3 7.9.3 5 0 7.7-.4 7.3-1-.3-.6 0-.6.9.1 1.5 1.1 21.8 1.2 23.6.1.7-.4 1.4-.4 1.6 0 .6 1 44.8 1 46.4 0 .6-.4 1.4-.4 1.6 0 .6 1 44.8.9 46.4 0 .6-.4 1.4-.4 1.7.1.6.9 12.8.8 14.4-.2.6-.3 1.3-.3 1.5.1.6 1 44.8.9 46.4 0 .6-.4 1.4-.4 1.6 0 .6 1 44.8 1 46.4 0 .6-.4 1.4-.4 1.6 0 .4.6 26.1.9 33.9.4 1.6-.1 1.8-3.7 1.8-53.9.2-75.2.2-76.7 0-77.7-.2-.6-.2-1.2-.1-1.5.6-1.9.2-47-.4-48-.5-.7-.4-1.1.1-.8.5.4.9-13.7.9-34.3 0-19.2-.4-34.9-.8-34.9-.5 0-.5-.5-.2-1.1 1.2-1.8 1.2-12.9 0-12.9-.6 0-.7-.3 0-.8 1-.7 1.5-18.2.5-18.2-1.1 0-28 27.7-27.5 28.3.3.4.2.5-.2.2s-6 4.7-12.5 11.2L338 145.5v-34-58.9l-3 2.9c-1.6 1.5-2.7 3.3-2.3 3.8.3.6.2.7-.4.4-.6-.4-2.4.8-4 2.6-1.7 1.7-11.2 11.2-21.2 21.1-10.6 10.4-17.8 18.3-17.4 19 .3.6.3.8-.2.4-.4-.4-1.4-.3-2.2.3-1.6 1.4-1.5 5.1-1.4-48.4.1-30-.2-41.7-1-41.7-.6 0-1.3.9-1.6 2zm-18.5 25.5c-.3.3-.9-.2-1.2-1.2-.6-1.4-.5-1.5.5-.6.7.7 1 1.5.7 1.8zm-120.1 168c0 .8-.4 1.2-.9.9-.5-.3-.6-1-.3-1.5.9-1.3 1.2-1.1 1.2.6zm224.7 31.3c.3.5-.1.9-.9.9s-1.2-.4-.9-.9c.3-.4.7-.8.9-.8.2 0 .6.4.9.8z"/></svg>