<svg xmlns="http://www.w3.org/2000/svg" width="90.755" height="90.755" viewBox="0 0 90.755 90.755"><defs><style>.a{fill:#f9ad6a;}.b{fill:#ea8c46;}.c{fill:#c1573e;}</style></defs><path class="a" d="M0,0V90.755H90.755ZM17.89,40.815l32.05,32.05H17.89Zm0,0"/><path class="b" d="M0,0V9.576L81.18,90.755h9.575ZM0,0"/><path class="b" d="M67.3,170.834l6.881,6.88v-.022L63.445,166.958v35.927H67.3Zm0,0" transform="translate(-49.408 -130.019)"/><g transform="translate(0 13.467)"><path class="c" d="M354.754,386.34h3.1v5.279h-3.1Zm0,0" transform="translate(-276.266 -314.33)"/><path class="c" d="M330.637,386.34h3.1v5.279h-3.1Zm0,0" transform="translate(-257.485 -314.33)"/><path class="c" d="M306.516,386.34h3.1v5.279h-3.1Zm0,0" transform="translate(-238.701 -314.33)"/><path class="c" d="M282.4,365.961h3.1v9.788h-3.1Zm0,0" transform="translate(-219.919 -298.46)"/><path class="c" d="M258.285,386.34h3.1v5.279h-3.1Zm0,0" transform="translate(-201.141 -314.33)"/><path class="c" d="M234.168,386.34h3.1v5.279h-3.1Zm0,0" transform="translate(-182.359 -314.33)"/><path class="c" d="M210.047,386.34h3.1v5.279h-3.1Zm0,0" transform="translate(-163.575 -314.33)"/><path class="c" d="M185.938,365.961h3.1v9.788h-3.1Zm0,0" transform="translate(-144.8 -298.46)"/><path class="c" d="M161.82,386.34h3.1v5.279h-3.1Zm0,0" transform="translate(-126.018 -314.33)"/><path class="c" d="M137.7,386.34h3.1v5.279h-3.1Zm0,0" transform="translate(-107.234 -314.33)"/><path class="c" d="M113.586,386.34h3.1v5.279h-3.1Zm0,0" transform="translate(-88.456 -314.33)"/><path class="c" d="M89.469,365.961h3.1v9.788h-3.1Zm0,0" transform="translate(-69.674 -298.46)"/><path class="c" d="M65.348,386.34h3.1v5.279h-3.1Zm0,0" transform="translate(-50.89 -314.33)"/><path class="c" d="M41.23,386.34h3.1v5.279h-3.1Zm0,0" transform="translate(-32.108 -314.33)"/><path class="c" d="M17.117,386.34h3.1v5.279h-3.1Zm0,0" transform="translate(-13.33 -314.33)"/><path class="c" d="M0,350.27H9.788v3.1H0Zm0,0" transform="translate(0 -286.241)"/><path class="c" d="M0,326.152H5.279v3.1H0Zm0,0" transform="translate(0 -267.459)"/><path class="c" d="M0,302.035H5.279v3.1H0Zm0,0" transform="translate(0 -248.678)"/><path class="c" d="M0,277.922H5.279v3.1H0Zm0,0" transform="translate(0 -229.9)"/><path class="c" d="M0,253.8H9.788v3.1H0Zm0,0" transform="translate(0 -211.118)"/><path class="c" d="M0,229.684H5.279v3.1H0Zm0,0" transform="translate(0 -192.334)"/><path class="c" d="M0,205.566H5.279v3.1H0Zm0,0" transform="translate(0 -173.552)"/><path class="c" d="M0,181.453H5.279v3.1H0Zm0,0" transform="translate(0 -154.774)"/><path class="c" d="M0,157.336H9.788v3.1H0Zm0,0" transform="translate(0 -135.993)"/><path class="c" d="M0,133.219H5.279v3.1H0Zm0,0" transform="translate(0 -117.211)"/><path class="c" d="M0,109.1H5.279v3.1H0Zm0,0" transform="translate(0 -98.43)"/><path class="c" d="M0,84.984H5.279v3.1H0Zm0,0" transform="translate(0 -79.649)"/><path class="c" d="M0,60.867H9.788v3.1H0Zm0,0" transform="translate(0 -60.867)"/></g></svg>